<?xml version="1.0" standalone="no"?>
<!DOCTYPE svg PUBLIC "-//W3C//DTD SVG 20010904//EN"
 "http://www.w3.org/TR/2001/REC-SVG-20010904/DTD/svg10.dtd">
<svg version="1.0" xmlns="http://www.w3.org/2000/svg"
 width="260.000000pt" height="260.000000pt" viewBox="0 0 260.000000 260.000000"
 preserveAspectRatio="xMidYMid meet">
<metadata>
Created by potrace 1.11, written by Peter Selinger 2001-2013
</metadata>
<g transform="translate(0.000000,260.000000) scale(0.100000,-0.100000)"
fill="#000000" stroke="none">
<path d="M1132 2590 c-301 -43 -565 -179 -775 -400 -171 -180 -278 -385 -333
-641 -26 -118 -26 -380 0 -498 59 -273 167 -474 360 -667 193 -193 394 -301
667 -360 118 -26 380 -26 498 0 273 59 474 167 667 360 193 193 301 394 360
667 14 62 18 127 18 249 0 122 -4 187 -18 249 -59 273 -167 474 -360 667 -190
189 -384 296 -646 355 -98 22 -340 33 -438 19z m288 -818 l112 -229 223 -32
c122 -18 237 -36 255 -40 l32 -6 -181 -174 c-139 -133 -181 -179 -181 -198 0
-23 63 -418 76 -472 5 -24 -21 -12 -361 170 l-90 48 -225 -118 c-124 -65 -227
-117 -228 -115 -2 1 15 115 39 253 l43 251 -183 177 c-180 174 -183 177 -155
184 16 4 130 22 252 40 l224 33 114 228 c63 125 116 228 118 228 1 0 54 -103
116 -228z"/>
</g>
</svg>
